# xmcd
#
# Track frame offsets: 
#        150
#        15430
#        30520
#        44620
#        60405
#        75357
#        93957
#        112972
#        128250
#        140267
#
# Disc length: 2084 seconds
#
# Revision: 4
# Processed by: cddbd v1.5.2PL0 Copyright (c) Steve Scherf et al.
# Submitted via: ExactAudioCopy v0.95a4
#
DISCID=6608220a
DTITLE=Suzy Bogguss - Something up My Sleeve
DYEAR=1993
DGENRE=Country
TTITLE0=Diamonds and Tears
TTITLE1=Just Like the Weather
TTITLE2=I Keep Comin' Back to You
TTITLE3=You Never Will
TTITLE4=You'd Be the One
TTITLE5=Hey Cinderella
TTITLE6=Souvenirs
TTITLE7=You Wouldn't Say That to a Stranger
TTITLE8=No Green Eyes
TTITLE9=Something up My Sleeve [Duet With Billy Dean]
EXTD=YEAR: 1993 ID3G:   2
EXTT0=
EXTT1=
EXTT2=
EXTT3=
EXTT4=
EXTT5=
EXTT6=
EXTT7=
EXTT8=
EXTT9=
PLAYORDER=
